<svg width="24" height="16" viewBox="0 0 24 16" fill="none" xmlns="http://www.w3.org/2000/svg">
<path fill-rule="evenodd" clip-rule="evenodd" d="M1.28896 4.60679C0.578064 4.74897 0.438748 5.70471 1.07947 6.04391C3.93362 7.55493 5.71875 10.5199 5.71875 13.7493V14.9057C5.71875 15.5662 6.49526 15.9208 6.99442 15.4882L9.03153 13.7227C10.5137 12.4381 12.6409 12.2172 14.3554 13.1697C14.7031 13.3628 15.1406 13.2598 15.3655 12.9318L23.1466 1.58444C23.5377 1.01405 23.0378 0.257016 22.3597 0.392652L1.28896 4.60679ZM7.51659 8.84106C7.12391 9.03348 6.875 9.43843 6.875 9.87572C6.875 11.0307 8.34532 11.55 9.03831 10.626L9.09537 10.5499C9.15648 10.4684 9.22886 10.3961 9.31034 10.335C10.3539 9.55227 9.36384 7.93587 8.19245 8.50987L7.51659 8.84106Z" fill="white"/>
<path fill-rule="evenodd" clip-rule="evenodd" d="M5.71875 13.7493C5.71875 10.5199 3.93362 7.55493 1.07947 6.04391C0.438748 5.70471 0.578064 4.74897 1.28896 4.60679L22.3597 0.392652C23.0378 0.257016 23.5377 1.01405 23.1466 1.58444L15.3655 12.9318C15.1406 13.2598 14.7031 13.3628 14.3554 13.1697C12.6409 12.2172 10.5137 12.4381 9.03153 13.7227L6.99442 15.4882C6.49526 15.9208 5.71875 15.5662 5.71875 14.9057V13.7493ZM7.51659 8.84106C7.12391 9.03348 6.875 9.43843 6.875 9.87572C6.875 11.0307 8.34532 11.55 9.03831 10.626L9.09537 10.5499C9.15648 10.4684 9.22886 10.3961 9.31034 10.335C10.3539 9.55227 9.36384 7.93587 8.19245 8.50987L7.51659 8.84106Z" fill="white"/>
</svg>
